# xmcd
#
# Track frame offsets:
#	150
#	15070
#	33872
#	47837
#	66872
#	79712
#	94950
#	110512
#	125845
#	141852
#	152507
#	172375
#	189350
#	208755
#
# Disc length: 2972 seconds
#
# Revision: 2
# Processed by: cddbd v1.5.2PL0 Copyright (c) Steve Scherf et al.
# Submitted via: audiograbber 1.81.02
#
DISCID=bd0b9a0e
DTITLE=MISSORA HIBARI 256 - VOLUME05
DYEAR=1900
DGENRE=BLUES
TTITLE0=HATAKA YOUBUNE
TTITLE1=TABI SUGATA SANNIM OTOKO
TTITLE2=AOI SAM MIYAKU
TTITLE3=GUEIDOU ITIDAI
TTITLE4=GUINZA KAN KAN MUSSUME
TTITLE5=KAWAWA NAGARERU
TTITLE6=SOSHU YAKI OKU
TTITLE7=SHAN HAI GAERINO LILUU
TTITLE8=OTIBA SHIGURE
TTITLE9=MAKA NA TAI YOU
TTITLE10=GANPEKI NO HAHA
TTITLE11=LINGO NO UTA
TTITLE12=TOKYO ANNA
TTITLE13=HIBARI NO MADORO SUSSAM
EXTD=KIROIVA@HOTMAIL.COM
EXTT0=
EXTT1=
EXTT2=
EXTT3=
EXTT4=
EXTT5=
EXTT6=
EXTT7=
EXTT8=
EXTT9=
EXTT10=
EXTT11=
EXTT12=
EXTT13=
PLAYORDER=
